<svg width="72" height="103" viewBox="0 0 72 103" fill="none" xmlns="http://www.w3.org/2000/svg">
<path d="M60.6327 83.925H11.3693V87.7408H60.6327V83.925Z" fill="#ACBA08"/>
<path d="M37.8962 26.7046H11.3693V30.5204H37.8962V26.7046Z" fill="#ACBA08"/>
<path d="M60.6327 72.4817H11.3693V76.2975H60.6327V72.4817Z" fill="#ACBA08"/>
<path d="M37.8962 15.259H11.3693V19.0748H37.8962V15.259Z" fill="#ACBA08"/>
<path d="M49.2635 0H47.3693H7.57884C3.40998 0 0 3.4328 0 7.62956V95.3704C0 99.5672 3.40998 103 7.57884 103H64.4212C68.59 103 72 99.5672 72 95.3704V28.6113V26.7044L49.2635 0ZM49.2635 5.72267L67.0742 26.7044H53.0539C51.1597 26.7044 49.2635 24.7976 49.2635 22.8887V5.72267ZM68.2096 95.3704C68.2096 97.2773 66.6938 99.1862 64.4192 99.1862H7.57884C5.68463 99.1862 3.78843 97.6603 3.78843 95.3704V7.62956C3.78843 5.72267 5.3042 3.81378 7.57884 3.81378H45.4731V22.8887C45.4731 27.0854 48.883 30.5182 53.0519 30.5182H68.2096V95.3704Z" fill="#ACBA08"/>
<path d="M60.6327 61.0364H11.3693V64.8521H60.6327V61.0364Z" fill="#ACBA08"/>
<path d="M60.6327 38.1477H11.3693V41.9635H60.6327V38.1477Z" fill="#ACBA08"/>
<path d="M60.6327 49.5933H11.3693V53.409H60.6327V49.5933Z" fill="#ACBA08"/>
</svg>
