<svg width="77" height="75" viewBox="0 0 77 75" fill="none" xmlns="http://www.w3.org/2000/svg">
<g clip-path="url(#clip0)">
<path d="M9.06156 57.8993C9.06156 56.7627 7.72122 56.6026 6.10659 56.4941C2.59789 56.2306 0.284631 55.0372 0.238055 51.5241C0.103503 44.5495 12.6686 44.5495 12.5754 51.5241H8.64238C8.64238 49.3697 4.32119 49.5608 4.16076 51.4776C4.06761 52.702 5.27341 52.9551 6.72243 53.1205C9.93615 53.4666 13.0774 53.8748 13.0774 57.9252C13.0774 64.7138 -0.087975 64.9049 0.00517644 57.7908H4.01069C4.00551 59.8419 9.06156 59.8109 9.06156 57.8993Z" fill="black"/>
<path d="M26.5792 57.0004C30.6675 54.226 29.5187 46.5798 23.1585 46.554H16.0686V62.7247H20.2087V57.9716H22.3667L25.1405 62.7247H29.7619V62.1254L26.5792 57.0004ZM23.1792 54.2415H20.2242V50.2479C21.1919 50.2479 22.2063 50.2273 23.1792 50.2479C25.5338 50.2738 25.4148 54.2415 23.1792 54.2415Z" fill="black"/>
<path d="M42.6065 50.2479H36.6292V52.5366H42.1252V56.2099H36.6292V59.0462H42.8186V62.7247H32.5357V46.554H42.6272V50.2479H42.6065Z" fill="black"/>
<path d="M52.465 46.554H46.3687V62.7247H52.4753C63.0066 62.6782 63.0066 46.6005 52.465 46.554ZM52.4598 58.9636H50.4984V50.3203H52.4598C57.609 50.3203 57.609 58.9636 52.4598 58.9636Z" fill="black"/>
<path d="M69.7083 46.3422H67.9074L60.6312 62.1202V62.7195H64.6885L65.6304 60.6891H72.0061L72.9635 62.7195H77V62.1202L69.7083 46.3422ZM67.1311 56.9745L68.7923 53.2496L70.5001 56.9745H67.1311Z" fill="black"/>
<path d="M53.4741 28.0275L53.4327 27.9552L57.3606 25.7905L57.3295 25.7956L53.3809 27.8622L53.3758 27.857L53.3292 12.3631L56.7861 14.1765H56.8172L53.3499 12.2649L53.4741 12.0531L39.7343 4.19508L46.524 0L46.4929 0.00516636L39.6463 4.13309L39.5531 3.97809L39.46 4.02976L39.2944 3.93676L39.1547 4.17442L34.8231 1.56541L34.7921 1.56024L39.1029 4.22091L25.5028 12.1099V12.1668L25.42 12.2184L25.5028 12.3631L18.7183 16.4135L18.7493 16.4083L25.5028 12.4406L25.5494 27.8725L25.5287 27.9138L15.3182 22.1533L15.282 22.1482L25.4924 27.9707L25.4355 28.074L29.529 30.4143L39.1805 35.9423L39.3254 36.1903L39.4703 36.1077L39.491 36.118L39.4962 36.1128L39.6256 36.1852L39.7498 35.9682L46.9535 31.7886L53.4741 28.0275ZM26.3049 27.8415L30.3725 20.7584L38.5336 34.8419L28.789 29.2674L26.3049 27.8415ZM52.5788 12.3373L48.5008 19.441L40.3346 5.32651L52.5788 12.3373ZM38.4871 5.33685L30.3674 19.4772L26.2894 12.4458L38.4871 5.33685ZM39.4134 5.0062L48.1334 20.0765L39.4652 35.1726L30.74 20.1178L39.4134 5.0062ZM40.3915 34.8419L48.506 20.7171L52.5943 27.7847L46.4774 31.334L40.3915 34.8419ZM48.8735 20.0765L52.6978 13.4222L52.7341 26.7514L48.8735 20.0765ZM26.1497 13.4739L30.0051 20.1178L26.1859 26.7617L26.1497 13.4739Z" fill="black"/>
<path d="M13.4656 74.2819C12.5548 74.2819 11.9803 73.6361 11.9803 72.6131C11.9803 71.6987 12.5082 70.9392 13.4966 70.9392C14.128 70.9392 14.7593 71.2906 14.8214 71.9725H14.3971C14.3039 71.554 13.9624 71.3061 13.4863 71.3061C12.7255 71.3061 12.4047 71.9363 12.4047 72.6131C12.4047 73.4243 12.8135 73.9254 13.4811 73.9254C14.0245 73.9254 14.3557 73.5999 14.423 73.0058H14.8473C14.7749 73.8117 14.2574 74.2819 13.4656 74.2819Z" fill="black"/>
<path d="M18.0403 71.3784H16.9639V74.2044H16.5396V71.3784H15.4683V71.0116H18.0403V71.3784Z" fill="black"/>
<path d="M18.5578 71.0116H19.0236L19.9603 72.9593L20.8763 71.0116H21.3317L20.0845 73.5586C19.8154 74.1062 19.5515 74.287 19.2358 74.287C19.0909 74.287 18.9305 74.2457 18.8425 74.2095V73.8479C18.8994 73.8841 19.0029 73.9306 19.2047 73.9306C19.4273 73.9306 19.5722 73.7136 19.6808 73.4914L19.7326 73.3778L18.5578 71.0116Z" fill="black"/>
<path d="M24.3953 75V74.2044H22.0821V75H21.6732V73.8376H21.9889C22.2322 73.4088 22.4081 72.5098 22.4081 71.6315V71.0116H24.4523V73.8376H24.8093V75H24.3953ZM24.0279 71.3784H22.8169V71.8124C22.8169 72.608 22.6513 73.4398 22.4547 73.8376H24.0279V71.3784Z" fill="black"/>
<path d="M25.746 71.0116H26.1704V73.7187H26.1807L27.7488 71.0116H28.2818V74.2095H27.8575V71.492H27.8471L26.2739 74.2095H25.746V71.0116Z" fill="black"/>
<path d="M29.6584 74.2095H29.1357L30.207 72.8301C29.7101 72.763 29.41 72.4633 29.41 71.926C29.41 71.3267 29.7981 71.0116 30.4243 71.0116H31.8009V74.2095H31.3765V72.8456H30.7141L29.6584 74.2095ZM31.3765 71.368H30.5692C30.1035 71.368 29.8395 71.5334 29.8395 71.926C29.8395 72.3187 30.0983 72.484 30.5692 72.484H31.3765V71.368Z" fill="black"/>
<path d="M35.3251 71.0116H35.7494V73.7187H35.7546L37.3227 71.0116H37.8557V74.2095H37.4314V71.492H37.421L35.8478 74.2095H35.3199V71.0116H35.3251Z" fill="black"/>
<path d="M41.6232 74.2095H41.1988V72.7165H39.5066V74.2095H39.0822V71.0116H39.5066V72.3445H41.1988V71.0116H41.6232V74.2095Z" fill="black"/>
<path d="M45.0698 71.3784H43.9985V74.2044H43.5742V71.3784H42.5029V71.0116H45.0749V71.3784H45.0698Z" fill="black"/>
<path d="M48.1645 71.3784H46.3687V72.3807H48.0454V72.7371H46.3687V73.8427H48.1852V74.2095H45.9444V71.0116H48.1593V71.3784H48.1645Z" fill="black"/>
<path d="M50.545 71.0116C51.1557 71.0116 51.6111 71.2647 51.6111 71.9312C51.6111 72.6545 51.1453 72.8973 50.5191 72.8973H49.6497V74.2095H49.2254V71.0116H50.545ZM49.6497 72.5408H50.4622C50.871 72.5408 51.1867 72.4272 51.1867 71.957C51.1867 71.4455 50.8193 71.3732 50.4001 71.3732H49.6446V72.5408H49.6497Z" fill="black"/>
<path d="M54.0433 74.2095H52.6409V71.0116H53.0653V72.3083H54.0433C54.6747 72.3083 55.0266 72.6545 55.0266 73.2589C55.0266 73.8634 54.6644 74.2095 54.0433 74.2095ZM53.8984 72.6751H53.0601V73.8427H53.8984C54.3642 73.8427 54.5971 73.6567 54.5971 73.2641C54.5971 72.8663 54.3694 72.6751 53.8984 72.6751Z" fill="black"/>
<path d="M58.2818 71.3784H56.4912V72.3807H58.1679V72.7371H56.4912V73.8427H58.3076V74.2095H56.072V71.0116H58.2869V71.3784H58.2818Z" fill="black"/>
<path d="M60.6675 71.0116C61.2781 71.0116 61.7335 71.2647 61.7335 71.9312C61.7335 72.6545 61.2678 72.8973 60.6416 72.8973H59.7722V74.2095H59.3478V71.0116H60.6675ZM59.7722 72.5408H60.5847C60.9935 72.5408 61.3092 72.4272 61.3092 71.957C61.3092 71.4455 60.9417 71.3732 60.5226 71.3732H59.767V72.5408H59.7722Z" fill="black"/>
<path d="M65.0197 74.2095H64.5488L64.1917 73.2331H62.8462L62.4787 74.2095H62.0285L63.286 71.0116H63.7622L65.0197 74.2095ZM63.5241 71.4145L62.9704 72.8921H64.0675L63.5241 71.4145Z" fill="black"/>
</g>
<defs>
<clipPath id="clip0">
<rect width="77" height="75" fill="white"/>
</clipPath>
</defs>
</svg>
