<svg width="103" height="103" viewBox="0 0 103 103" fill="none" xmlns="http://www.w3.org/2000/svg">
<g clip-path="url(#clip0)">
<path d="M75.4535 28.5523C75.0794 28.1781 74.5603 27.9629 74.0312 27.9629C73.5022 27.9629 72.9831 28.1781 72.609 28.5523C72.2348 28.9265 72.0195 29.4435 72.0195 29.9746C72.0195 30.5037 72.2348 31.0227 72.609 31.3969C72.9831 31.7711 73.5022 31.9863 74.0312 31.9863C74.5603 31.9863 75.0794 31.7711 75.4535 31.3969C75.8277 31.0227 76.043 30.5037 76.043 29.9746C76.043 29.4455 75.8277 28.9265 75.4535 28.5523Z" fill="#ACBA08"/>
<path d="M30.1758 56.7305H14.082C12.9716 56.7305 12.0703 57.6317 12.0703 58.7422V74.8359C12.0703 75.9464 12.9716 76.8477 14.082 76.8477H30.1758C31.2862 76.8477 32.1875 75.9464 32.1875 74.8359V58.7422C32.1875 57.6317 31.2862 56.7305 30.1758 56.7305ZM28.1641 72.8242H16.0938V60.7539H28.1641V72.8242Z" fill="#ACBA08"/>
<path d="M101.759 42.1977C101.006 41.8859 100.141 42.0589 99.566 42.6342L79.0666 63.1337C79.0666 63.1337 79.0666 63.1337 79.0645 63.1357C79.0625 63.1377 79.0645 63.1357 79.0645 63.1377L55.1693 87.0309C55.1693 87.0309 55.1693 87.0309 55.1673 87.0329C55.1653 87.0349 55.1673 87.0329 55.1653 87.0349L42.6323 99.5679C42.057 100.143 41.886 101.008 42.1958 101.761C42.5076 102.513 43.2399 103.002 44.0546 103.002H100.986C102.097 103.002 102.998 102.101 102.998 100.99V44.0565C103 43.2438 102.509 42.5095 101.759 42.1977ZM98.9765 98.9765H48.9129L56.5896 91.2997L58.5108 93.2209C58.9031 93.6132 59.4181 93.8104 59.9331 93.8104C60.4481 93.8104 60.9631 93.6132 61.3554 93.2209C62.1399 92.4364 62.1399 91.1609 61.3554 90.3764L59.4342 88.4552L64.556 83.3333L66.4772 85.2545C66.8695 85.6468 67.3845 85.844 67.8995 85.844C68.4145 85.844 68.9295 85.6468 69.3218 85.2545C70.1064 84.47 70.1064 83.1945 69.3218 82.41L67.4006 80.4888L72.5224 75.3669L74.4436 77.2881C74.8359 77.6804 75.3509 77.8776 75.8659 77.8776C76.3809 77.8776 76.8959 77.6804 77.2882 77.2881C78.0728 76.5035 78.0728 75.2281 77.2882 74.4435L75.367 72.5224L80.4868 67.4025L82.408 69.3237C82.8003 69.716 83.3153 69.9132 83.8303 69.9132C84.3453 69.9132 84.8603 69.716 85.2526 69.3237C86.0372 68.5392 86.0372 67.2637 85.2526 66.4792L83.3314 64.558L88.4532 59.4361L90.3744 61.3573C90.7667 61.7496 91.2817 61.9467 91.7967 61.9467C92.3117 61.9467 92.8267 61.7496 93.219 61.3573C94.0036 60.5727 94.0036 59.2973 93.219 58.5127L91.2978 56.5916L98.9765 48.9128V98.9765Z" fill="#ACBA08"/>
<path d="M91.7002 66.4814C90.9478 66.1696 90.0828 66.3426 89.5074 66.9179L66.9178 89.5075C66.3425 90.0829 66.1695 90.9479 66.4813 91.7003C66.7931 92.4527 67.5254 92.9415 68.3401 92.9415H90.9297C92.0402 92.9415 92.9414 92.0403 92.9414 90.9298V68.3402C92.9414 67.5275 92.4505 66.7932 91.7002 66.4814ZM88.918 88.9181H73.1964L88.918 73.1965V88.9181Z" fill="#ACBA08"/>
<path d="M93.1549 30.0274C92.6016 29.4741 91.7768 29.2911 91.0405 29.5607L77.3045 34.592C77.0309 34.6926 76.7815 34.8515 76.5743 35.0587L72.7118 38.9212L47.4909 13.7003C47.1127 13.3221 46.6017 13.1108 46.0686 13.1108C45.5355 13.1108 45.0225 13.3221 44.6463 13.7003L14.2895 44.0571H6.86823L46.0686 4.85675L67.5799 26.3681C68.3665 27.1526 69.6399 27.1526 70.4245 26.3681C71.209 25.5835 71.209 24.3081 70.4245 23.5235L47.4909 0.589893C46.7043 -0.194678 45.4309 -0.194678 44.6463 0.589893L0.589653 44.6465C0.0143011 45.2219 -0.156695 46.0869 0.15311 46.8393C0.464926 47.5897 1.19719 48.0805 2.01194 48.0805H4.02366V100.989C4.02366 102.099 4.92491 103 6.03538 103H38.0197C39.1302 103 40.0314 102.099 40.0314 100.989C40.0314 99.8783 39.1302 98.977 38.0197 98.977H8.04709V48.0805H15.1223C15.6554 48.0805 16.1664 47.8693 16.5446 47.4911L46.0686 17.9671L69.8652 41.7637L40.0334 71.5975V53.5122H54.1155C55.2259 53.5122 56.1272 52.6109 56.1272 51.5005C56.1272 50.39 55.2259 49.4887 54.1155 49.4887H38.0217C36.9112 49.4887 36.01 50.39 36.01 51.5005V74.8364C36.01 75.0718 36.0522 75.2951 36.1267 75.5043L34.3242 77.3068C31.1396 80.4913 31.1396 85.6735 34.3242 88.8581C35.9174 90.4514 38.0076 91.246 40.0998 91.246C42.192 91.246 44.2822 90.4494 45.8755 88.8581L62.8403 71.8933C63.6248 71.1087 63.6248 69.8333 62.8403 69.0487C62.0557 68.2641 60.7823 68.2641 59.9957 69.0487L47.1428 81.9016L41.2827 76.0414L78.0388 39.2853L83.8989 45.1454L69.8531 59.1913C69.0686 59.9758 69.0686 61.2513 69.8531 62.0358C70.6397 62.8204 71.9131 62.8204 72.6977 62.0358L88.1256 46.608C88.3328 46.4008 88.4917 46.1513 88.5923 45.8777L93.6236 32.1417C93.8912 31.4054 93.7081 30.5806 93.1549 30.0274ZM44.2963 84.7461L43.0289 86.0135C42.2463 86.7961 41.2063 87.2266 40.0978 87.2266C38.9893 87.2266 37.9493 86.7961 37.1667 86.0135C36.3842 85.2309 35.9537 84.1909 35.9537 83.0824C35.9537 81.974 36.3842 80.9339 37.1667 80.1514L38.4341 78.884L44.2963 84.7461ZM85.9187 41.4761L81.7062 37.2635L88.3529 34.8293L85.9187 41.4761Z" fill="#ACBA08"/>
<path d="M67.7326 64.1536C67.3584 63.7795 66.8394 63.5642 66.3103 63.5642C65.7812 63.5642 65.2622 63.7795 64.888 64.1536C64.5138 64.5298 64.2986 65.0468 64.2986 65.5759C64.2986 66.107 64.5138 66.624 64.888 67.0002C65.2622 67.3744 65.7792 67.5876 66.3103 67.5876C66.8394 67.5876 67.3584 67.3744 67.7326 67.0002C68.1068 66.624 68.322 66.105 68.322 65.5759C68.322 65.0468 68.1068 64.5298 67.7326 64.1536Z" fill="#ACBA08"/>
<path d="M46.0684 30.377C41.8538 30.377 38.4238 33.8069 38.4238 38.0215C38.4238 42.236 41.8538 45.666 46.0684 45.666C50.2829 45.666 53.7129 42.236 53.7129 38.0215C53.7129 33.8069 50.2829 30.377 46.0684 30.377ZM46.0684 41.6426C44.0707 41.6426 42.4473 40.0191 42.4473 38.0215C42.4473 36.0238 44.0707 34.4004 46.0684 34.4004C48.066 34.4004 49.6895 36.0238 49.6895 38.0215C49.6895 40.0191 48.064 41.6426 46.0684 41.6426Z" fill="#ACBA08"/>
</g>
<defs>
<clipPath id="clip0">
<rect width="103" height="103" fill="white"/>
</clipPath>
</defs>
</svg>
