<svg width="101" height="101" viewBox="0 0 101 101" fill="none" xmlns="http://www.w3.org/2000/svg">
<g clip-path="url(#clip0)">
<path d="M95.2569 76.2683C93.1584 74.7916 90.7365 73.9989 88.2909 73.8688C79.0727 67.8336 73.0337 63.3047 69.5074 59.7794L58.6759 48.951L65.2474 41.5968C66.4938 42.3006 67.831 42.762 69.1682 42.9533C70.1779 43.1209 70.8505 43.1209 71.525 43.1209C72.872 43.1209 73.2073 43.1209 74.5543 44.2979C73.8818 44.8027 73.5446 45.6446 73.5446 46.4845C73.5446 47.3244 73.8818 48.3359 74.5543 49.0082L80.4454 54.8976C81.2875 55.907 82.6326 56.4118 83.9796 56.4118C85.3267 56.4118 86.6717 55.907 87.5139 54.73L99.4636 42.7857C100.473 41.9438 100.978 40.5991 100.978 39.2525C100.978 37.9058 100.473 36.7288 99.4636 35.7193L93.5726 29.8299C92.9 29.1576 92.0579 28.8204 91.2158 28.8204C90.3736 28.8204 89.5334 29.3252 88.8589 29.8299C87.5119 28.6529 87.5119 28.3157 87.5119 26.9691C87.5119 26.2967 87.5119 25.4548 87.1747 24.4453C86.8374 22.0892 85.66 19.7351 83.8081 17.8837L77.7494 11.8267C74.2151 8.29354 72.5328 6.61172 67.9888 4.59275C58.2302 0.0500525 48.3019 0.891949 33.8277 7.45362C32.9856 7.79077 32.6503 8.4631 32.818 9.305C32.9856 10.1469 33.6601 10.6516 34.5003 10.6516H36.6875C44.0932 10.6516 47.9627 10.6516 54.6959 17.3809C57.6444 20.3285 57.7292 24.8456 55.0884 28.1698C54.7334 28.223 54.4612 28.3827 54.191 28.6529L46.7143 36.9949L41.0639 31.3461C34.8533 25.1374 30.4828 19.2619 27.1202 12.7199C26.9427 9.4095 25.6154 6.31203 23.223 3.92238C20.3633 1.06151 16.3242 -0.285129 12.285 0.0520243C11.7801 0.219615 11.2753 0.556768 11.1076 0.893921C10.7704 1.39866 10.7704 2.071 11.1076 2.57574L15.8193 10.9888C14.8095 13.1754 12.4546 14.52 10.0978 14.3524L5.21656 6.27654C5.04892 5.7718 4.37441 5.43464 3.86952 5.43464C3.36463 5.26705 2.85974 5.60223 2.52249 6.10698C-1.51467 12.1659 0 20.2418 6.0587 24.4473C8.14532 25.9379 10.4982 26.766 12.8787 26.9375C12.9063 26.9493 12.93 26.9631 12.9576 26.971C19.5212 30.3366 25.4122 34.7098 31.6386 40.9363L37.7939 46.9498L2.01957 86.8679C0.672531 88.2126 0 90.064 0 91.9154C0 93.7668 0.672531 95.4486 2.01957 96.7952L4.37638 99.1514C5.72342 100.328 7.40573 101.003 9.08805 101.003C10.7704 101.003 12.6223 100.33 13.9693 98.9838L49.7022 58.9927L60.0821 69.3695C63.6124 72.8988 68.1525 79.1154 74.2013 88.187C74.4183 91.4244 75.7436 94.449 78.0886 96.7933C80.613 99.317 83.9796 100.664 87.5139 100.664C88.0188 100.664 88.5237 100.664 88.8609 100.664C89.3658 100.664 89.8707 100.326 90.2079 99.8217C90.5452 99.317 90.5452 98.6446 90.2079 98.1399L85.3267 89.8964C86.5041 87.7098 88.6933 86.3632 91.2177 86.5308L95.9294 94.6067C96.097 95.1114 96.7715 95.4486 97.2764 95.4486C97.949 95.281 98.4538 95.1114 98.7911 94.6067C102.83 88.5498 101.146 80.4739 95.2569 76.2683ZM56.8851 14.6896C51.4989 9.47456 47.4598 7.79077 42.9158 7.28603C52.5087 4.25756 59.5772 4.42516 66.6457 7.62318C70.6848 9.305 72.0319 10.6516 75.5661 14.1848L81.6248 20.2418C82.9718 21.5884 83.812 23.2702 83.9816 24.9521C84.1493 25.794 84.1493 26.4663 84.1493 26.971C84.1493 28.8224 84.3169 30.1671 86.3365 32.1861C87.009 32.8584 88.0188 33.1955 88.8609 33.1955C89.8707 33.1955 90.7128 32.8584 91.2177 32.1861L97.1088 38.0754C97.446 38.4125 97.6137 38.7477 97.6137 39.2525C97.6137 39.7572 97.446 40.0944 97.1088 40.4295L85.159 52.3758C84.4865 53.0481 83.4767 53.0481 82.8022 52.3758L76.9112 46.4865C77.5837 45.9817 77.9209 45.1398 77.7533 44.1303C77.7533 43.2884 77.416 42.279 76.7435 41.6066C74.7239 39.5877 73.3769 39.4201 71.527 39.4201C71.0221 39.4201 70.3495 39.4201 69.5074 39.2525C67.6555 39.0849 66.1408 38.243 64.7957 36.8963L57.5596 29.6623C61.2595 25.1196 60.9242 18.7275 56.8851 14.6896ZM4.03913 10.6516L7.57337 16.7086C7.91063 17.2133 8.41552 17.5485 8.92041 17.5485H9.76255C13.634 17.7161 17.1683 15.6971 18.8506 12.3335L19.1879 11.4916C19.5251 10.9868 19.5251 10.4821 19.1879 9.97733L15.484 3.58523C17.5036 3.92238 19.3555 4.93187 20.8702 6.4461C22.6057 8.32509 23.7161 10.7009 23.7812 13.2542C23.7477 13.3844 23.7299 13.5224 23.7299 13.6801C23.7299 14.4589 23.6352 15.22 23.4617 15.9515C22.8266 18.3884 21.3041 20.5119 19.1859 21.9236C15.8193 24.1102 11.2753 24.1102 7.91062 21.756C4.37638 19.2323 2.86171 14.6896 4.03913 10.6516ZM33.9954 38.5801C28.9465 33.3651 23.8975 29.3272 18.5114 26.1291C19.3535 25.792 20.3633 25.2872 21.2035 24.7825C23.7279 23.1007 25.4102 20.9121 26.42 18.2208C29.617 23.6054 33.6562 28.6529 38.7051 33.7003L44.4857 39.4792L39.9515 44.5365L33.9954 38.5801ZM11.6125 96.4581C10.2655 97.8047 8.07827 97.9723 6.73123 96.6257L4.37441 94.4391C3.70188 93.7668 3.36463 92.9249 3.36463 92.083C3.36463 91.0735 3.70188 90.2316 4.54205 89.3917L5.49464 88.325L7.90668 90.7363C8.24393 91.0735 8.57921 91.2411 9.0841 91.2411C9.58899 91.2411 9.92625 91.0735 10.2615 90.7363C10.9341 90.064 10.9341 89.0545 10.2615 88.3802L7.71735 85.8368L9.94202 83.3485L12.6223 86.026C12.9595 86.3632 13.2948 86.5308 13.7997 86.5308C14.3046 86.5308 14.6419 86.3632 14.9771 86.026C15.6497 85.3537 15.6497 84.3442 14.9771 83.6699L12.1687 80.8623L55.4592 32.4443L62.5277 39.5108L55.5834 47.2791C55.3842 47.3639 55.2087 47.492 55.0351 47.6655L48.3039 55.2367C48.1106 55.4299 47.9765 55.6488 47.8937 55.8794L11.6125 96.4581ZM52.0058 56.4157L56.611 51.2618L67.4859 62.1335C70.5152 65.3296 75.7318 69.3675 83.3051 74.415C82.2954 74.7521 81.2856 75.2569 80.2758 75.9292C78.1872 77.2344 76.71 79.0444 75.6785 81.0476C75.6627 81.0752 75.6489 81.1048 75.6351 81.1344C75.574 81.2546 75.5148 81.3769 75.4557 81.4972C75.3728 81.6707 75.2939 81.8442 75.219 82.0196C75.1677 82.1399 75.1164 82.2582 75.0671 82.3785C75.0592 82.3962 75.0533 82.414 75.0474 82.4297C74.9941 82.5619 74.9409 82.6939 74.8916 82.826C73.9351 81.4242 73.016 80.1012 72.1324 78.8551L74.3867 76.6015C75.0592 75.9292 75.0592 74.9197 74.3867 74.2454C73.7142 73.5731 72.7044 73.5731 72.0299 74.2454L70.1543 76.1205C69.4541 75.1721 68.7796 74.277 68.1288 73.4351L69.675 71.8893C70.3476 71.2169 70.3476 70.2075 69.675 69.5331C69.0025 68.8608 67.9927 68.8608 67.3182 69.5331L66.0343 70.8167C64.7977 69.3261 63.6558 68.0583 62.6066 67.0094L52.0058 56.4157ZM97.1068 90.064L93.5726 84.0071C93.2353 83.5023 92.7304 83.1652 92.2255 83.1652H91.3834C87.5119 82.828 83.9777 85.0166 82.2953 88.3802L81.9581 89.2221C81.6208 89.7268 81.6208 90.2316 81.9581 90.7363L85.66 97.1304C83.6404 96.7933 81.7885 95.7838 80.2738 94.2695C78.5718 92.426 77.4713 90.1034 77.3687 87.6053C77.3983 87.4831 77.4141 87.351 77.4141 87.2031C77.4141 85.0718 78.0905 83.0764 79.2699 81.3867C79.9938 80.3792 80.901 79.4959 81.9581 78.792C83.6404 77.615 85.4923 77.1102 87.5119 77.1102C89.5315 77.1102 91.551 77.7826 93.2334 78.9616C96.7715 81.4834 98.2862 86.026 97.1068 90.064Z" fill="#ACBA08"/>
</g>
<defs>
<clipPath id="clip0">
<rect width="101" height="101" fill="white"/>
</clipPath>
</defs>
</svg>
