<svg width="44" height="42" viewBox="0 0 44 42" fill="none" xmlns="http://www.w3.org/2000/svg">
<path d="M39.9685 1.32116L1.85274 17.797C1.85274 17.797 0.027478 18.4649 0.188531 19.7452C0.349583 21.0254 1.79906 21.582 1.79906 21.582L11.4085 25.1443C11.4085 25.1443 14.3075 35.6087 14.898 37.5569C15.4885 39.5607 15.918 39.5607 15.918 39.5607C16.4548 39.839 16.938 39.3937 16.938 39.3937L23.1117 33.1596L32.7748 41.2862C35.4054 42.5664 36.318 39.9503 36.318 39.9503L43.0822 2.32307C43.0822 -0.181708 39.9685 1.32116 39.9685 1.32116ZM33.2043 36.9446L22.8433 28.2614L19.6222 31.4898L20.3201 24.6434L34.1169 11.1176L15.3275 22.6952L7.00642 19.6338L38.7875 5.82975L33.2043 36.9446Z" fill="white"/>
</svg>
