<svg width="125" height="130" viewBox="0 0 125 130" fill="none" xmlns="http://www.w3.org/2000/svg">
<path d="M60.43 54.6442C68.4785 54.6442 75.0756 48.0127 75.0756 39.9222C75.0756 31.8317 68.4785 25.2002 60.43 25.2002C52.3815 25.2002 45.7844 31.8317 45.7844 39.9222C45.7844 48.0127 52.3815 54.6442 60.43 54.6442ZM60.43 30.5054C65.5758 30.5054 69.7979 34.7496 69.7979 39.9222C69.7979 45.0948 65.5758 49.339 60.43 49.339C55.2843 49.339 51.0621 45.0948 51.0621 39.9222C51.0621 34.7496 55.2843 30.5054 60.43 30.5054Z" fill="#ACBA08"/>
<path d="M100.144 39.524V7.82522C100.144 3.4484 96.5818 0 92.3596 0H28.6315C24.2774 0 20.8469 3.58103 20.8469 7.82522V41.7787C7.52071 50.0018 0 61.6733 0 74.008C0 94.4331 20.8469 111.94 49.2145 116.185L40.2424 124.54C39.1869 125.601 39.1869 127.193 40.1105 128.254C40.6382 128.784 41.298 129.05 42.0896 129.05C42.7493 129.05 43.409 128.784 43.9368 128.387L57.131 116.052C57.131 116.052 57.131 116.052 57.263 115.919C57.263 115.919 57.263 115.919 57.3949 115.787L57.5269 115.654C57.5269 115.654 57.5269 115.654 57.5269 115.521L57.6588 115.389L57.7908 115.256C57.7908 115.256 57.7908 115.256 57.7908 115.124C57.7908 114.991 57.7908 114.991 57.9227 114.858V114.726C57.9227 114.726 57.9227 114.726 57.9227 114.593C57.9227 114.46 57.9227 114.46 57.9227 114.328V114.195C57.9227 114.062 57.9227 114.062 57.9227 113.93C57.9227 113.797 57.9227 113.797 57.9227 113.665C57.9227 113.665 57.9227 113.665 57.9227 113.532C57.9227 113.399 57.9227 113.399 57.9227 113.267C57.9227 113.134 57.9227 113.134 57.9227 113.001C57.9227 113.001 57.9227 113.001 57.9227 112.869C57.9227 112.736 57.9227 112.736 57.7908 112.604C57.7908 112.471 57.7908 112.471 57.6588 112.471C57.6588 112.471 57.6588 112.471 57.6588 112.338C57.6588 112.206 57.5269 112.206 57.5269 112.206C57.5269 112.206 57.5269 112.073 57.3949 112.073L46.1798 98.412C45.2562 97.2183 43.541 97.0857 42.4854 98.0141C41.298 98.9426 41.166 100.667 42.0896 101.728L49.0826 110.349C23.6177 106.768 5.27769 91.6479 5.27769 74.008C5.27769 64.4585 10.9512 55.1744 20.8469 48.145V71.7532C20.8469 76.1301 24.4093 79.5785 28.6315 79.5785H92.2277C96.5818 79.5785 100.012 75.9974 100.012 71.7532V45.625C112.415 52.787 119.672 63.1322 119.672 74.008C119.672 92.4436 99.7484 108.094 72.1725 111.277C70.853 111.41 69.7975 112.736 69.9295 114.195C70.0614 115.521 71.2489 116.582 72.5683 116.582C72.7002 116.582 72.8322 116.582 72.8322 116.582C103.047 113.134 124.949 95.2289 124.949 74.008C125.081 60.4796 115.713 47.6144 100.144 39.524ZM28.6315 5.30523H92.2277C93.6791 5.30523 94.7346 6.49891 94.7346 7.82522V25.0672H82.464C77.7141 17.9052 69.5336 13.1304 60.2977 13.1304C51.0617 13.1304 42.8813 17.9052 38.1313 25.0672H25.8607V7.82522C26.1246 6.49891 27.1801 5.30523 28.6315 5.30523ZM60.4296 18.4357C72.1725 18.4357 81.6723 27.9851 81.6723 39.7892C81.6723 51.5934 72.1725 61.1428 60.4296 61.1428C48.6867 61.1428 39.1869 51.5934 39.1869 39.7892C39.1869 27.9851 48.6867 18.4357 60.4296 18.4357ZM92.2277 74.4059H28.6315C27.1801 74.4059 26.1246 73.2122 26.1246 71.8859V30.5051H35.6244C34.5689 33.423 33.9092 36.6061 33.9092 39.9219C33.9092 54.6439 45.784 66.5806 60.4296 66.5806C75.0752 66.5806 86.95 54.6439 86.95 39.9219C86.95 36.6061 86.2903 33.423 85.2348 30.5051H94.7346V71.8859C94.8666 73.2122 93.6791 74.4059 92.2277 74.4059Z" fill="#ACBA08"/>
</svg>
