<svg width="200" height="195" viewBox="0 0 200 195" fill="none" xmlns="http://www.w3.org/2000/svg">
<path d="M23.5365 150.538C23.5365 147.583 20.0551 147.167 15.8613 146.885C6.74778 146.2 0.73931 143.097 0.618334 133.963C0.268848 115.829 32.9054 115.829 32.6635 133.963H22.4478C22.4478 128.361 11.2239 128.858 10.8072 133.842C10.5652 137.025 13.6972 137.683 17.4609 138.113C25.8082 139.013 33.9674 140.074 33.9674 150.605C33.9674 168.256 -0.228497 168.753 0.0134544 150.256H10.4174C10.4039 155.589 23.5365 155.508 23.5365 150.538Z" fill="black"/>
<path d="M69.0369 148.201C79.6559 140.988 76.6718 121.108 60.1519 121.04H41.7367V163.084H52.4901V150.726H58.0953L65.3001 163.084H77.3036V161.526L69.0369 148.201ZM60.2057 141.028H52.5304V130.645C55.044 130.645 57.6786 130.591 60.2057 130.645C66.3217 130.712 66.0125 141.028 60.2057 141.028Z" fill="black"/>
<path d="M95.1408 130.645V136.595H109.416V146.146H95.1408V153.52H111.217V163.084H84.5084V121.04H110.72V130.645H95.1408Z" fill="black"/>
<path d="M136.273 121.04H120.438V163.084H136.3C163.653 162.963 163.653 121.161 136.273 121.04ZM136.259 153.305H131.165V130.833H136.259C149.634 130.833 149.634 153.305 136.259 153.305Z" fill="black"/>
<path d="M181.061 120.49H176.383L157.484 161.513V163.071H168.022L170.468 157.792H187.029L189.515 163.071H200V161.513L181.061 120.49ZM174.367 148.134L178.681 138.449L183.117 148.134H174.367Z" fill="black"/>
<path d="M138.894 72.8715L138.786 72.6834L148.989 67.0552L148.908 67.0686L138.652 72.4416L138.638 72.4282L138.517 32.144L147.496 36.8589H147.577L138.571 31.8888L138.894 31.3381L103.206 10.9072L120.841 0L120.761 0.0134325L102.977 10.746L102.735 10.343L102.493 10.4774L102.063 10.2356L101.7 10.8535L90.4496 4.07006L90.369 4.05662L101.566 10.9744L66.241 31.4858V31.6336L66.026 31.7679L66.241 32.144L48.6189 42.6751L48.6995 42.6617L66.241 32.3455L66.362 72.4685L66.3082 72.5759L39.7876 57.5987L39.6935 57.5852L66.2141 72.7237L66.0663 72.9924L101.768 93.4501L102.144 94.0949L102.52 93.8799L102.574 93.9068L102.588 93.8934L102.924 94.0814L103.246 93.5173L121.957 82.6503L138.894 72.8715ZM68.3245 72.3879L78.8897 53.9719L100.087 90.589L74.7765 76.0953L68.3245 72.3879ZM136.568 32.0769L125.976 50.5466L104.765 13.8489L136.568 32.0769ZM99.9664 13.8758L78.8763 50.6406L68.2842 32.359L99.9664 13.8758ZM102.372 13.0161L125.022 52.1988L102.507 91.4487L79.8441 52.3063L102.372 13.0161ZM104.913 90.589L125.99 53.8644L136.609 72.2401L120.72 81.4683L104.913 90.589ZM126.944 52.1988L136.878 34.8977L136.972 69.5536L126.944 52.1988ZM67.9212 35.032L77.9354 52.3063L68.0153 69.5805L67.9212 35.032Z" fill="black"/>
<path d="M34.9755 193.133C32.6097 193.133 31.1177 191.454 31.1177 188.794C31.1177 186.417 32.4888 184.442 35.0561 184.442C36.696 184.442 38.3359 185.355 38.4972 187.129H37.395C37.153 186.04 36.2659 185.396 35.0292 185.396C33.0533 185.396 32.2199 187.035 32.2199 188.794C32.2199 190.903 33.2818 192.206 35.0158 192.206C36.4272 192.206 37.2875 191.36 37.4622 189.815H38.5644C38.3763 191.91 37.0321 193.133 34.9755 193.133Z" fill="black"/>
<path d="M46.858 185.584H44.0621V192.931H42.9599V185.584H40.1774V184.63H46.858V185.584Z" fill="black"/>
<path d="M48.2022 184.63H49.4119L51.8449 189.694L54.2241 184.63H55.407L52.1675 191.252C51.4685 192.676 50.783 193.146 49.963 193.146C49.5867 193.146 49.17 193.039 48.9415 192.945V192.005C49.0893 192.099 49.3582 192.219 49.8824 192.219C50.4604 192.219 50.8368 191.655 51.119 191.078L51.2535 190.782L48.2022 184.63Z" fill="black"/>
<path d="M63.3645 195V192.931H57.356V195H56.2941V191.978H57.1141C57.7458 190.863 58.2029 188.526 58.2029 186.242V184.63H63.5123V191.978H64.4398V195H63.3645ZM62.4101 185.584H59.2648V186.712C59.2648 188.781 58.8346 190.943 58.3238 191.978H62.4101V185.584Z" fill="black"/>
<path d="M66.8728 184.63H67.975V191.669H68.0019L72.0748 184.63H73.4593V192.945H72.357V185.879H72.3302L68.2438 192.945H66.8728V184.63Z" fill="black"/>
<path d="M77.0348 192.945H75.6771L78.4596 189.358C77.1692 189.184 76.3896 188.405 76.3896 187.008C76.3896 185.449 77.3977 184.63 79.0241 184.63H82.5997V192.945H81.4974V189.399H79.7769L77.0348 192.945ZM81.4974 185.557H79.4005C78.1908 185.557 77.5052 185.987 77.5052 187.008C77.5052 188.029 78.1773 188.458 79.4005 188.458H81.4974V185.557Z" fill="black"/>
<path d="M92.8557 184.63V191.669H92.8691L96.942 184.63H98.3265V192.945H97.2243V185.879H97.1974L93.1111 192.945H91.74V184.63H92.8557Z" fill="black"/>
<path d="M108.112 192.945H107.01V189.063H102.614V192.945H101.512V184.63H102.614V188.096H107.01V184.63H108.112V192.945Z" fill="black"/>
<path d="M114.282 185.584V192.931H113.18V185.584H110.397V184.63H117.078V185.584H114.282Z" fill="black"/>
<path d="M125.103 185.584H120.438V188.19H124.793V189.117H120.438V191.991H125.156V192.945H119.336V184.63H125.089V185.584H125.103Z" fill="black"/>
<path d="M131.286 184.63C132.872 184.63 134.055 185.288 134.055 187.021C134.055 188.902 132.845 189.533 131.219 189.533H128.96V192.945H127.858V184.63H131.286ZM131.071 188.606C132.133 188.606 132.952 188.311 132.952 187.088C132.952 185.758 131.998 185.57 130.909 185.57H128.947V188.606H131.071Z" fill="black"/>
<path d="M140.372 192.945H136.73V184.63H137.832V188.002H140.372C142.012 188.002 142.926 188.902 142.926 190.473C142.926 192.045 141.985 192.945 140.372 192.945ZM139.996 188.955H137.818V191.991H139.996C141.206 191.991 141.811 191.508 141.811 190.487C141.811 189.452 141.219 188.955 139.996 188.955Z" fill="black"/>
<path d="M146.73 185.584V188.19H151.085V189.117H146.73V191.991H151.448V192.945H145.642V184.63H151.395V185.584H146.73Z" fill="black"/>
<path d="M157.578 184.63C159.164 184.63 160.347 185.288 160.347 187.021C160.347 188.902 159.137 189.533 157.511 189.533H155.252V192.945H154.15V184.63H157.578ZM157.363 188.606C158.425 188.606 159.245 188.311 159.245 187.088C159.245 185.758 158.29 185.57 157.201 185.57H155.239V188.606H157.363Z" fill="black"/>
<path d="M168.882 192.945H167.659L166.732 190.406H163.237L162.282 192.945H161.113L164.379 184.63H165.616L168.882 192.945ZM164.998 185.678L163.559 189.52H166.409L164.998 185.678Z" fill="black"/>
</svg>
